<svg width="70" height="70" viewBox="0 0 70 72" fill="none" style="max-width: 50%;"><path opacity="0.1" d="M56.1022 63.8046C54.7895 66.6691 52.1224 68.5844 49.3595 69.8476C47.1473 70.8522 44.8089 71.5121 42.4175 71.8064C41.9594 71.8638 41.4999 71.9084 41.0389 71.9401C39.861 72.0213 38.6792 72.0199 37.5015 71.936C36.793 71.8861 36.087 71.8065 35.3835 71.6971C32.9391 71.3201 30.5559 70.5863 28.3022 69.5168C27.6517 69.207 27.0144 68.8689 26.3903 68.5024C25.3479 67.8915 24.3492 67.2008 23.402 66.436C23.1924 66.2666 22.9855 66.0937 22.7812 65.917L22.6972 65.8444C22.5365 65.7043 22.3774 65.5611 22.2157 65.4221C21.9471 65.1841 21.6619 64.9679 21.3626 64.7751C21.3424 64.7626 21.3221 64.75 21.3013 64.738C21.246 64.704 21.1896 64.6721 21.1323 64.6418C21.0142 64.5789 20.8931 64.5224 20.7695 64.4725C20.1986 64.2426 19.5872 64.1589 18.9674 64.173C18.8646 64.173 18.7618 64.1804 18.6585 64.1877C18.5142 64.1981 18.3694 64.2138 18.225 64.2337L18.1716 64.2415C17.7117 64.3103 17.257 64.4135 16.8109 64.5504C16.1219 64.7594 15.4453 65.0207 14.7642 65.2564C14.475 65.3573 14.1854 65.4535 13.8933 65.5397L13.829 65.5585C13.4136 65.6821 12.9906 65.7756 12.5632 65.8386C11.5918 65.9699 10.6053 65.8859 9.66629 65.5919L9.63366 65.582L9.57336 65.5632L9.49082 65.536C9.35243 65.49 9.21518 65.4397 9.0791 65.385L8.99655 65.3515C8.86475 65.2979 8.73574 65.2402 8.60954 65.1786L8.527 65.1388C8.39519 65.074 8.26619 65.0056 8.13999 64.9334C8.09451 64.9084 8.04954 64.8812 8.00505 64.8556C7.87061 64.7761 7.73881 64.6929 7.60964 64.6058C7.47256 64.5134 7.33845 64.4171 7.2073 64.3168C7.14667 64.2708 7.0867 64.2236 7.02739 64.1751C6.68548 63.8986 6.3653 63.5933 6.06999 63.2621C6.05368 63.2449 6.03836 63.2271 6.02304 63.2099C5.94445 63.12 5.86734 63.0285 5.79271 62.935C5.76503 62.9005 5.73735 62.866 5.71017 62.8304C5.62153 62.7162 5.53602 62.5993 5.45364 62.4798C5.44128 62.4625 5.42942 62.4448 5.41756 62.4275C5.07985 61.9337 4.79987 61.3985 4.58373 60.8335C4.57681 60.8163 4.57039 60.7985 4.56445 60.7813C4.49855 60.6018 4.43842 60.4195 4.38405 60.2341C4.3618 60.1567 4.34055 60.0773 4.32177 60C4.31534 59.977 4.30941 59.9535 4.30397 59.9305C4.03114 58.7948 4 57.6142 4 56.4404C4 56.3035 4 56.1668 4 56.0302C4.00791 54.1315 4.03559 52.2005 4.30051 50.3279C4.30051 50.3149 4.30397 50.3018 4.30595 50.2893C4.39462 49.6589 4.51523 49.034 4.66726 48.4173C4.82638 47.7701 5.02973 47.1361 5.27571 46.5202C5.88514 45.0046 6.77136 43.6254 7.75545 42.3471C8.94169 40.809 10.3009 39.3896 11.8149 38.2184C12.0323 38.0501 12.2528 37.8867 12.4762 37.7282L12.5795 37.6566C12.6156 37.631 12.6517 37.6044 12.6877 37.5819C12.7619 37.5296 12.836 37.4805 12.9112 37.4308L12.9952 37.3754L13.1553 37.2709L13.2048 37.2411L13.2903 37.1889L13.3748 37.1366C13.4736 37.0749 13.5736 37.0147 13.6748 36.9558C14.1068 36.7011 14.549 36.4684 15.0014 36.2576C15.1349 36.1952 15.2691 36.1351 15.4042 36.0773C16.0176 35.8131 16.6477 35.5947 17.2899 35.4235C17.5271 35.3601 17.7659 35.3043 18.0061 35.2562C18.2894 35.1984 18.5743 35.1505 18.8607 35.1125C19.3163 35.0519 19.7746 35.0158 20.2337 35.0043C23.4623 34.9212 26.7235 36.0323 29.2536 38.162C30.2619 39.0107 31.1679 40.0157 32.3003 40.6664C33.2888 41.2329 34.4459 41.4675 35.5046 41.0217C36.3795 40.6533 36.9489 40.4704 37.9315 40.5263C39.9647 40.6474 41.9693 41.0906 43.878 41.8412C43.9551 41.871 44.0322 41.9018 44.1088 41.9326C49.0866 43.9473 53.3665 47.9479 55.5897 53.0889C55.6483 53.2248 55.7055 53.3617 55.7612 53.4997C57.0873 56.7739 57.5658 60.6125 56.1022 63.8046Z" fill="#02275D"></path><path d="M36.9194 23.8811H20.3457V3.45387C20.3457 3.11208 20.6228 2.83508 20.9645 2.83508H36.3006C36.6424 2.83508 36.9194 3.11219 36.9194 3.45387V23.8811Z" fill="white"></path><path d="M35.0029 2.83508V23.8811H36.9194V3.45387C36.9194 3.11208 36.6423 2.83508 36.3006 2.83508H35.0029Z" fill="#02275D" fill-opacity="0.5"></path><path d="M29.68 7.60324H27.5843C27.309 7.60324 27.0859 7.38013 27.0859 7.10492V2.83508H30.1784V7.10503C30.1783 7.38013 29.9552 7.60324 29.68 7.60324Z" fill="white"></path><path d="M55.9485 42.1161H30.5498V16.0878H55.3297C55.6715 16.0878 55.9485 16.3649 55.9485 16.7066V42.1161Z" fill="white"></path><path d="M44.2963 20.8559H42.2005C41.9253 20.8559 41.7021 20.6328 41.7021 20.3576V16.0878H44.7946V20.3577C44.7946 20.6328 44.5715 20.8559 44.2963 20.8559Z" fill="white"></path><path d="M39.7686 58.1246H9.83496V38.2816C9.83496 37.9398 10.1121 37.6628 10.4537 37.6628H39.7686V58.1246Z" fill="#02275D"></path><path d="M37.8525 37.6628H39.769V58.1246H37.8525V37.6628Z" fill="white"></path><path d="M25.85 42.431H23.7542C23.479 42.431 23.2559 42.2079 23.2559 41.9327V37.6627H26.3483V41.9327C26.3483 42.2079 26.1252 42.431 25.85 42.431Z" fill="white"></path><path d="M65.1673 58.1247H39.7686V42.1162H64.5484C64.8902 42.1162 65.1672 42.3933 65.1672 42.735V58.1247H65.1673Z" fill="#02275D"></path><path d="M53.516 46.8844H51.4202C51.145 46.8844 50.9219 46.6612 50.9219 46.386V42.1161H54.0144V46.386C54.0144 46.6612 53.7913 46.8844 53.516 46.8844Z" fill="white"></path><path d="M30.5483 37.6629H13.9746V24.5C13.9746 24.1582 14.2517 23.8812 14.5934 23.8812H30.5483V37.6629Z" fill="#02275D" fill-opacity="0.3"></path><path d="M28.6328 23.8811H30.5493V37.6629H28.6328V23.8811Z" fill="#02275D" fill-opacity="0.5"></path><path d="M23.31 28.6493H21.2141C20.9389 28.6493 20.7158 28.4262 20.7158 28.1509V23.8811H23.8083V28.151C23.8083 28.4262 23.5852 28.6493 23.31 28.6493Z" fill="white"></path><path d="M64.5486 41.2811H56.7829V28.5063C56.7829 28.0451 56.4092 27.6713 55.9479 27.6713C55.4867 27.6713 55.1129 28.0451 55.1129 28.5063V41.2811C53.4028 41.2811 42.4318 41.2811 40.6037 41.2811V37.6628C40.6037 37.2015 40.2299 36.8278 39.7687 36.8278H31.3841C31.3841 35.8011 31.3841 18.6262 31.3841 16.9227H40.8673V20.3578C40.8673 21.093 41.4654 21.6911 42.2006 21.6911H44.2964C45.0316 21.6911 45.6298 21.093 45.6298 20.3578V16.9227H55.113V25.1679C55.113 25.6292 55.4868 26.0029 55.948 26.0029C56.4093 26.0029 56.783 25.6292 56.783 25.1679V16.7066C56.783 15.905 56.1308 15.2527 55.3291 15.2527C51.2305 15.2527 41.5691 15.2527 37.7547 15.2527V3.45389C37.7547 2.6523 37.1025 2 36.3008 2H20.9647C20.163 2 19.5108 2.65219 19.5108 3.45389V8.73285C19.5108 9.1941 19.8847 9.56784 20.3458 9.56784C20.8069 9.56784 21.1808 9.1941 21.1808 8.73285V3.66999H26.2515V7.10505C26.2515 7.84029 26.8495 8.43837 27.5848 8.43837H29.6806C30.4159 8.43837 31.0139 7.84029 31.0139 7.10505V3.66999H36.0846V15.2527H30.5492C30.0881 15.2527 29.7142 15.6265 29.7142 16.0877V23.046H21.1809V12.0713C21.1809 11.61 20.8071 11.2363 20.3459 11.2363C19.8848 11.2363 19.5109 11.61 19.5109 12.0713V23.0461H14.5942C13.7925 23.0461 13.1404 23.6982 13.1404 24.4999V36.8278H10.4538C9.65219 36.8278 9 37.48 9 38.2817V58.1245C9 58.5858 9.37386 58.9595 9.835 58.9595H18.6766C19.1377 58.9595 19.5116 58.5858 19.5116 58.1245C19.5116 57.6633 19.1377 57.2895 18.6766 57.2895H10.67V38.4978H22.4206V41.9327C22.4206 42.668 23.0188 43.2662 23.7539 43.2662H25.8497C26.5849 43.2662 27.183 42.668 27.183 41.9327V38.4978H38.9336V57.2895H22.015C21.5539 57.2895 21.18 57.6633 21.18 58.1245C21.18 58.5858 21.5539 58.9595 22.015 58.9595H65.1673C65.6285 58.9595 66.0023 58.5858 66.0023 58.1245V42.735C66.0024 41.9334 65.3502 41.2811 64.5486 41.2811ZM29.3438 6.76827H27.9214V3.6701H29.3438V6.76827ZM43.9597 16.9227V20.021H42.5373V16.9227H43.9597ZM21.551 24.7161H22.9735V27.8143H21.551V24.7161ZM14.8103 24.7161H19.881V28.1511C19.881 28.8863 20.4792 29.4844 21.2143 29.4844H23.3102C24.0454 29.4844 24.6435 28.8863 24.6435 28.1511V24.7161H29.7141V36.8278C26.4865 36.8278 17.508 36.8278 14.8103 36.8278V24.7161ZM25.513 41.596H24.0906V38.4978H25.513V41.596ZM53.1793 42.9511V46.0494H51.7568V42.9511H53.1793ZM64.3324 57.2895H40.6037V42.9511H50.0868V46.386C50.0868 47.1213 50.685 47.7195 51.4202 47.7195H53.5159C54.2512 47.7195 54.8494 47.1213 54.8494 46.386V42.9511H64.3325V57.2895H64.3324Z" fill="#02275D"></path></svg>