<svg width="70" height="70" viewBox="0 0 70 70" fill="none" class="mx-auto"><path d="M44.4158 31.898H24.4802C19.5011 31.898 16.7762 26.0953 19.9564 22.2639L20.1332 22.0508C21.5342 20.3629 22.3011 18.2384 22.3011 16.0448V12.2005C22.3012 5.46228 27.7634 0 34.5016 0C41.2398 0 46.7021 5.46228 46.7021 12.2005V16.1746C46.7021 18.3911 47.4851 20.5364 48.9128 22.2319C52.1327 26.0554 49.4146 31.898 44.4158 31.898Z" fill="#02275D"></path><path d="M54.8941 41.7778V54.9573H14V41.8769C14 38.9154 15.7749 36.2427 18.5032 35.0943L25.105 32.2243L27.3277 31.2579C29.0144 30.5246 30.1051 28.8608 30.1051 27.0216V26.1685H38.7879V26.978C38.7879 28.8249 39.8895 30.4952 41.5882 31.223L50.5173 35.0507C53.178 36.2296 54.8941 38.8664 54.8941 41.7778Z" fill="#02275D"></path><path d="M25.105 35.3667C27.3581 36.04 30.6745 36.758 34.7169 36.6873C38.5099 36.621 41.6234 35.8835 43.79 35.1915L44.8665 32.6281L41.5883 31.223C39.8901 30.4951 38.789 28.8253 38.789 26.9776V26.1687H30.1061V27.0216C30.1061 28.8606 29.0153 30.5243 27.3289 31.2576L24.6738 32.412L25.105 35.3667Z" fill="white"></path><path d="M25.105 32.2251V54.9581H14V41.8777C14 38.9162 15.7749 36.2435 18.5032 35.095L25.105 32.2251Z" fill="#02275D"></path><path d="M37.4569 30.9344C38.4558 30.9344 39.4077 30.7338 40.2753 30.3719C39.3446 29.5127 38.7885 28.2902 38.7885 26.9776V26.1687H30.1056V27.0215C30.1056 27.6858 29.9626 28.327 29.7012 28.91C31.016 30.1633 32.7947 30.9343 34.7545 30.9343H37.4569V30.9344Z" fill="white"></path><path d="M43.126 13.107V20.2901C43.126 24.3368 39.8455 27.6172 35.7989 27.6172H33.0966C29.0499 27.6172 25.7695 24.3367 25.7695 20.2901V13.107C25.7695 10.4745 27.9036 8.34033 30.5362 8.34033H38.3594C40.9919 8.34044 43.126 10.4745 43.126 13.107Z" fill="white"></path><path d="M43.1262 16.8442C43.1229 16.8542 43.1189 16.8637 43.1159 16.8739C42.8511 17.7886 42.1559 19.5164 40.476 20.8118C39.6938 21.4151 38.8015 21.851 37.8242 22.1075C37.3812 22.2237 37.1162 22.6771 37.2324 23.1201C37.3303 23.4926 37.6662 23.7392 38.0341 23.7392C38.1038 23.7392 38.1746 23.7304 38.2452 23.7119C39.4385 23.3987 40.5298 22.8649 41.489 22.1254C42.1513 21.6146 42.6874 21.0504 43.1214 20.4832C43.123 20.4189 43.1263 20.355 43.1263 20.2903V16.8442H43.1262Z" fill="#02275D"></path><path d="M36.9144 24.3999H34.9709C34.0863 24.3999 33.3691 23.6827 33.3691 22.7981C33.3691 21.9135 34.0863 21.1963 34.9709 21.1963H36.9144C37.799 21.1963 38.5162 21.9135 38.5162 22.7981C38.5161 23.6828 37.799 24.3999 36.9144 24.3999Z" fill="#02275D"></path><path d="M36.1785 6.43926C36.3646 4.09231 38.6115 2.53475 40.762 1.72803C44.3194 3.85957 46.701 7.75166 46.701 12.2005V13.0393C46.5043 13.0806 46.3086 13.1167 46.1151 13.1456C44.9304 13.3226 43.9216 13.246 43.2323 13.1456C38.7908 12.554 35.9537 9.2738 36.1785 6.43926Z" fill="#02275D"></path><path d="M34.5011 0C37.2565 0 39.7982 0.913721 41.8406 2.45428C40.8218 4.22713 38.4822 7.73231 34.0953 10.3273C30.8385 12.2537 27.7676 12.9011 25.8766 13.1454H22.3008V12.2003C22.3007 5.46228 27.763 0 34.5011 0V0Z" fill="#02275D"></path><path d="M48.1389 55.957H21.5909L20.1266 42.1438C20.0228 41.1641 20.7908 40.3103 21.776 40.3103H47.9539C48.9391 40.3103 49.7072 41.1641 49.6033 42.1438L48.1389 55.957Z" fill="#B3BECE"></path><path d="M34.8651 50.456C36.1475 50.456 37.1872 49.4163 37.1872 48.1339C37.1872 46.8514 36.1475 45.8118 34.8651 45.8118C33.5826 45.8118 32.543 46.8514 32.543 48.1339C32.543 49.4163 33.5826 50.456 34.8651 50.456Z" fill="#02275D"></path><path opacity="0.1" d="M60.1022 62.0261C58.7895 64.8131 56.1224 66.6767 53.3595 67.9058C51.1473 68.8833 48.8089 69.5252 46.4175 69.8116C45.9594 69.8675 45.4999 69.9109 45.0389 69.9418C43.861 70.0207 42.6792 70.0194 41.5015 69.9377C40.793 69.8892 40.087 69.8118 39.3835 69.7053C36.9391 69.3384 34.5559 68.6245 32.3022 67.5839C31.6517 67.2825 31.0144 66.9535 30.3903 66.5969C29.3479 66.0025 28.3492 65.3305 27.402 64.5863C27.1924 64.4216 26.9855 64.2533 26.7812 64.0814L26.6972 64.0107C26.5365 63.8745 26.3774 63.7351 26.2157 63.5999C25.9471 63.3684 25.6619 63.1579 25.3626 62.9704C25.3424 62.9582 25.3221 62.946 25.3013 62.9343C25.246 62.9012 25.1896 62.8702 25.1323 62.8407C25.0142 62.7794 24.8931 62.7244 24.7695 62.6759C24.1986 62.4522 23.5872 62.3709 22.9674 62.3846C22.8646 62.3846 22.7618 62.3917 22.6585 62.3988C22.5142 62.409 22.3694 62.4242 22.225 62.4436L22.1716 62.4512C21.7117 62.5182 21.257 62.6186 20.8109 62.7517C20.1219 62.9551 19.4453 63.2094 18.7642 63.4387C18.475 63.5368 18.1854 63.6304 17.8933 63.7143L17.829 63.7326C17.4136 63.8528 16.9906 63.9439 16.5632 64.0051C15.5918 64.1329 14.6053 64.0512 13.6663 63.7651L13.6337 63.7555L13.5734 63.7372L13.4908 63.7107C13.3524 63.666 13.2152 63.617 13.0791 63.5638L12.9966 63.5312C12.8647 63.479 12.7357 63.4229 12.6095 63.3629L12.527 63.3243C12.3952 63.2612 12.2662 63.1946 12.14 63.1244C12.0945 63.1 12.0495 63.0736 12.0051 63.0487C11.8706 62.9714 11.7388 62.8904 11.6096 62.8056C11.4726 62.7158 11.3384 62.622 11.2073 62.5244C11.1467 62.4797 11.0867 62.4337 11.0274 62.3866C10.6855 62.1176 10.3653 61.8205 10.07 61.4983C10.0537 61.4815 10.0384 61.4642 10.023 61.4474C9.94445 61.36 9.86734 61.271 9.79271 61.18C9.76503 61.1464 9.73735 61.1128 9.71017 61.0783C9.62153 60.9671 9.53602 60.8533 9.45364 60.7371C9.44128 60.7203 9.42942 60.703 9.41756 60.6862C9.07985 60.2057 8.79987 59.685 8.58373 59.1353C8.57681 59.1185 8.57039 59.1013 8.56445 59.0845C8.49855 58.9099 8.43842 58.7324 8.38405 58.5521C8.3618 58.4768 8.34055 58.3995 8.32177 58.3243C8.31534 58.3019 8.30941 58.279 8.30397 58.2567C8.03114 57.1517 8 56.003 8 54.861C8 54.7277 8 54.5947 8 54.4618C8.00791 52.6145 8.03559 50.7356 8.30051 48.9137C8.30051 48.901 8.30397 48.8882 8.30595 48.876C8.39462 48.2627 8.51523 47.6547 8.66726 47.0546C8.82638 46.425 9.02973 45.8081 9.27571 45.2088C9.88514 43.7342 10.7714 42.3923 11.7554 41.1485C12.9417 39.652 14.3009 38.271 15.8149 37.1314C16.0323 36.9677 16.2528 36.8087 16.4762 36.6545L16.5795 36.5848C16.6156 36.5599 16.6517 36.534 16.6877 36.5121C16.7619 36.4613 16.836 36.4135 16.9112 36.3651L16.9952 36.3112L17.1553 36.2095L17.2048 36.1806L17.2903 36.1297L17.3748 36.0789C17.4736 36.0189 17.5736 35.9602 17.6748 35.9029C18.1068 35.6551 18.549 35.4287 19.0014 35.2236C19.1349 35.1629 19.2691 35.1044 19.4042 35.0482C20.0176 34.7912 20.6477 34.5786 21.2899 34.412C21.5271 34.3503 21.7659 34.2961 22.0061 34.2493C22.2894 34.193 22.5743 34.1464 22.8607 34.1095C23.3163 34.0505 23.7746 34.0154 24.2337 34.0042C27.4623 33.9234 30.7235 35.0044 33.2536 37.0765C34.2619 37.9023 35.1679 38.8801 36.3003 39.5132C37.2888 40.0644 38.4459 40.2927 39.5046 39.859C40.3795 39.5005 40.9489 39.3225 41.9315 39.3769C43.9647 39.4948 45.9693 39.926 47.878 40.6563C47.9551 40.6853 48.0322 40.7153 48.1088 40.7453C53.0866 42.7055 57.3665 46.598 59.5897 51.6C59.6483 51.7322 59.7055 51.8654 59.7612 51.9997C61.0873 55.1854 61.5658 58.9202 60.1022 62.0261Z" fill="#02275D"></path></svg>