<svg width="70" height="70" viewBox="0 0 70 70" fill="none" style="max-width: 50%;"><path opacity="0.1" d="M61.1022 60.8046C59.7895 63.6691 57.1224 65.5844 54.3595 66.8476C52.1473 67.8522 49.8089 68.5121 47.4175 68.8064C46.9594 68.8638 46.4999 68.9084 46.0389 68.9401C44.861 69.0213 43.6792 69.0199 42.5015 68.936C41.793 68.8861 41.087 68.8065 40.3835 68.6971C37.9391 68.3201 35.5559 67.5863 33.3022 66.5168C32.6517 66.207 32.0144 65.8689 31.3903 65.5024C30.3479 64.8915 29.3492 64.2008 28.402 63.436C28.1924 63.2666 27.9855 63.0937 27.7812 62.917L27.6972 62.8444C27.5365 62.7043 27.3774 62.5611 27.2157 62.4221C26.9471 62.1841 26.6619 61.9679 26.3626 61.7751C26.3424 61.7626 26.3221 61.75 26.3013 61.738C26.246 61.704 26.1896 61.6721 26.1323 61.6418C26.0142 61.5789 25.8931 61.5224 25.7695 61.4725C25.1986 61.2426 24.5872 61.1589 23.9674 61.173C23.8646 61.173 23.7618 61.1804 23.6585 61.1877C23.5142 61.1981 23.3694 61.2138 23.225 61.2337L23.1716 61.2415C22.7117 61.3103 22.257 61.4135 21.8109 61.5504C21.1219 61.7594 20.4453 62.0207 19.7642 62.2564C19.475 62.3573 19.1854 62.4535 18.8933 62.5397L18.829 62.5585C18.4136 62.6821 17.9906 62.7756 17.5632 62.8386C16.5918 62.9699 15.6053 62.8859 14.6663 62.5919L14.6337 62.582L14.5734 62.5632L14.4908 62.536C14.3524 62.49 14.2152 62.4397 14.0791 62.385L13.9966 62.3515C13.8647 62.2979 13.7357 62.2402 13.6095 62.1786L13.527 62.1388C13.3952 62.074 13.2662 62.0056 13.14 61.9334C13.0945 61.9084 13.0495 61.8812 13.0051 61.8556C12.8706 61.7761 12.7388 61.6929 12.6096 61.6058C12.4726 61.5134 12.3384 61.4171 12.2073 61.3168C12.1467 61.2708 12.0867 61.2236 12.0274 61.1751C11.6855 60.8986 11.3653 60.5933 11.07 60.2621C11.0537 60.2449 11.0384 60.2271 11.023 60.2099C10.9444 60.12 10.8673 60.0285 10.7927 59.935C10.765 59.9005 10.7374 59.866 10.7102 59.8304C10.6215 59.7162 10.536 59.5993 10.4536 59.4798C10.4413 59.4625 10.4294 59.4448 10.4176 59.4275C10.0798 58.9337 9.79987 58.3985 9.58373 57.8335C9.57681 57.8163 9.57039 57.7985 9.56445 57.7813C9.49855 57.6018 9.43842 57.4195 9.38405 57.2341C9.3618 57.1567 9.34055 57.0773 9.32177 57C9.31534 56.977 9.30941 56.9535 9.30397 56.9305C9.03114 55.7948 9 54.6142 9 53.4404C9 53.3035 9 53.1668 9 53.0302C9.00791 51.1315 9.03559 49.2005 9.30051 47.3279C9.30051 47.3149 9.30397 47.3018 9.30595 47.2893C9.39462 46.6589 9.51523 46.034 9.66726 45.4173C9.82638 44.7701 10.0297 44.1361 10.2757 43.5202C10.8851 42.0046 11.7714 40.6254 12.7554 39.3471C13.9417 37.809 15.3009 36.3896 16.8149 35.2184C17.0323 35.0501 17.2528 34.8867 17.4762 34.7282L17.5795 34.6566C17.6156 34.631 17.6517 34.6044 17.6877 34.5819C17.7619 34.5296 17.836 34.4805 17.9112 34.4308L17.9952 34.3754L18.1553 34.2709L18.2048 34.2411L18.2903 34.1889L18.3748 34.1366C18.4736 34.0749 18.5736 34.0147 18.6748 33.9558C19.1068 33.7011 19.549 33.4684 20.0014 33.2576C20.1349 33.1952 20.2691 33.1351 20.4042 33.0773C21.0176 32.8131 21.6477 32.5947 22.2899 32.4235C22.5271 32.3601 22.7659 32.3043 23.0061 32.2562C23.2894 32.1984 23.5743 32.1505 23.8607 32.1125C24.3163 32.0519 24.7746 32.0158 25.2337 32.0043C28.4623 31.9212 31.7235 33.0323 34.2536 35.162C35.2619 36.0107 36.1679 37.0157 37.3003 37.6664C38.2888 38.2329 39.4459 38.4675 40.5046 38.0217C41.3795 37.6533 41.9489 37.4704 42.9315 37.5263C44.9647 37.6474 46.9693 38.0906 48.878 38.8412C48.9551 38.871 49.0322 38.9018 49.1088 38.9326C54.0866 40.9473 58.3665 44.9479 60.5897 50.0889C60.6483 50.2248 60.7055 50.3617 60.7612 50.4997C62.0873 53.7739 62.5658 57.6125 61.1022 60.8046Z" fill="#02275D"></path><path d="M44.9433 58.1062C54.2275 58.1062 61.7539 50.5798 61.7539 41.2956C61.7539 32.0114 54.2275 24.4851 44.9433 24.4851C35.6591 24.4851 28.1328 32.0114 28.1328 41.2956C28.1328 50.5798 35.6591 58.1062 44.9433 58.1062Z" fill="#02275D"></path><path d="M43.5449 24.5596C52.1773 25.3762 58.7723 32.6245 58.7723 41.2954C58.7723 49.9663 52.1773 57.2146 43.5449 58.0312C49.9016 58.6325 56.0502 55.5807 59.415 50.1541C62.7798 44.7276 62.7798 37.8632 59.415 32.4367C56.0502 27.0101 49.9016 23.9583 43.5449 24.5596Z" fill="#7FACFA"></path><path d="M37.9313 42.2298C37.7258 44.7047 35.9514 46.7033 36.2409 49.2622C36.5117 51.6624 37.0627 51.9893 35.9887 55.4728C28.9837 51.0503 26.2449 42.1838 29.5354 34.5811C29.7886 36.5375 31.0204 38.2304 32.8041 39.0732C34.6719 39.8764 38.1554 39.5588 37.9313 42.2298Z" fill="#B3BECE"></path><path d="M54.6098 55.0431C50.5023 57.9471 45.3051 58.8459 40.4609 57.49C43.5335 54.6882 46.7182 53.9691 50.8087 54.2773C52.1029 54.3717 53.38 54.629 54.6098 55.0431Z" fill="#E8EDFC"></path><path d="M60.4274 47.8334C58.9953 48.1996 57.6454 48.8333 56.4489 49.7012C56.3529 49.772 56.2531 49.8374 56.15 49.8973C52.6759 52.2228 50.229 50.906 50.2664 48.7299C50.3037 46.5539 52.0782 44.5273 52.0782 41.8563C52.0782 39.1853 50.0235 38.0179 47.7448 37.5603C46.4947 37.3296 45.3648 36.6688 44.5508 35.6925L44.8777 31.7793C46.6241 29.5473 49.6313 29.7341 52.349 26.3159C60.2903 30.2399 63.8242 39.6527 60.4274 47.8334Z" fill="#B3BECE"></path><path d="M36.4087 25.905C35.5105 26.8278 34.8865 27.9822 34.6062 29.2391C34.4911 29.7085 34.6295 30.204 34.9713 30.5458C35.313 30.8875 35.8085 31.0259 36.278 30.9108C37.058 30.7287 37.8006 30.4127 38.4727 29.9769C44.1415 24.6255 42.5632 26.1571 45.6732 23.0472C46.298 22.4506 46.3231 21.4612 45.7292 20.8338L44.6552 19.8158C44.0258 19.2271 43.0406 19.252 42.4418 19.8719C41.6106 20.6937 42.6753 19.517 36.4087 25.905Z" fill="#E8EDFC"></path><path d="M32.803 10.1776C33.407 9.56341 33.407 8.57837 32.803 7.9642L31.7477 6.89019C31.1203 6.29634 30.1308 6.32139 29.5343 6.94623C26.4243 10.0655 27.956 8.47785 22.6046 14.1467C22.1693 14.8157 21.8533 15.5551 21.6707 16.3321C21.5555 16.8015 21.6939 17.297 22.0357 17.6388C22.3775 17.9806 22.873 18.119 23.3424 18.0038C24.6013 17.7269 25.7587 17.1062 26.6858 16.2107C32.9618 10.0749 31.8691 11.0648 32.803 10.1776Z" fill="#E8EDFC"></path><path d="M40.8899 17.1054L44.9431 31.8707C45.4493 33.7138 44.9249 35.6868 43.5702 37.0353L43.2807 37.3341C43.107 37.5071 42.8611 37.5865 42.619 37.5477C42.377 37.5089 42.1682 37.3566 42.0573 37.138L34.9782 23.0172C34.8848 23.0172 34.8101 23.2693 33.1103 24.8103C30.5882 26.9459 27.9506 28.9412 25.2094 30.7873C24.9588 30.9715 24.8444 31.2888 24.9199 31.5905L25.7604 34.9713C25.8256 35.2317 25.7514 35.5073 25.5643 35.6998L24.7891 36.4656C24.6471 36.6087 24.4538 36.6892 24.2521 36.6892C24.0505 36.6892 23.8572 36.6087 23.7151 36.4656C19.2697 32.0201 23.7712 36.5309 16.1878 28.9382C16.0446 28.7962 15.9641 28.6028 15.9641 28.4012C15.9641 28.1995 16.0446 28.0062 16.1878 27.8642L16.9536 27.089C17.1461 26.9019 17.4216 26.8277 17.682 26.8929L21.0628 27.7334C21.3645 27.809 21.6819 27.6945 21.866 27.4439C24.8919 23.2786 26.4235 20.8505 29.6362 17.6471L15.478 10.5867C15.2594 10.4758 15.1071 10.267 15.0683 10.0249C15.0295 9.78291 15.1089 9.53693 15.2819 9.36327L15.5807 9.07375C16.9254 7.71259 18.8971 7.17776 20.7453 7.67288C35.2677 11.642 32.5967 10.9323 35.5105 11.7261L39.8159 7.42072C41.9359 5.30073 45.0552 3.36752 47.997 4.06795C48.2695 4.13371 48.4822 4.34647 48.548 4.61897C48.8095 5.73967 49.071 8.92433 45.1952 12.8001L40.8899 17.1054Z" fill="white"></path><path d="M25.1728 30.789C27.9278 28.9623 30.5665 26.966 33.0738 24.8119L32.1399 23.0188C32.0465 23.0188 31.9718 23.271 30.272 24.8119C27.7647 26.966 25.126 28.9623 22.3711 30.789C22.1204 30.9731 22.006 31.2905 22.0816 31.5922L22.9221 34.9729C22.9686 35.1847 22.9209 35.4062 22.7913 35.58L23.6786 36.4672C23.8206 36.6104 24.0139 36.6909 24.2156 36.6909C24.4172 36.6909 24.6105 36.6104 24.7526 36.4672L25.5277 35.7014C25.7148 35.5089 25.789 35.2333 25.7238 34.9729L24.8833 31.5922C24.8078 31.2905 24.9222 30.9731 25.1728 30.789Z" fill="#E8EDFC"></path><path d="M45.197 12.8019C49.0727 8.92609 48.8112 5.74143 48.5497 4.62073C48.484 4.34824 48.2712 4.13548 47.9987 4.06972C47.0992 3.85502 46.1618 3.85502 45.2623 4.06972C45.502 4.14566 45.6856 4.33982 45.748 4.58337C46.0095 5.70408 46.271 8.88874 42.3952 12.7645L38.0898 17.1072L42.143 31.8725C42.5284 33.2982 42.3052 34.82 41.5267 36.0751C41.7695 36.5701 41.8162 36.6541 42.059 37.1398C42.1699 37.3584 42.3787 37.5107 42.6207 37.5495C42.8628 37.5883 43.1088 37.5089 43.2824 37.3359L43.5719 37.037C44.9266 35.6886 45.4511 33.7156 44.9448 31.8725L40.8916 17.1072L45.197 12.8019Z" fill="#E8EDFC"></path><path d="M54.6113 55.043C51.6087 57.2213 47.9492 58.3026 44.2448 58.1063C41.5271 57.9382 47.2147 58.704 52.5194 54.52C53.2277 54.6471 53.9266 54.8218 54.6113 55.043Z" fill="#549414"></path><path d="M46.4295 23.6257C46.8379 23.1771 47.073 22.5976 47.0926 21.9913C47.0926 20.7118 46.3548 20.1702 45.3182 19.1335C44.5166 18.3423 43.2772 18.2033 42.3203 18.7973L41.9374 17.3871L45.8785 13.4646C50.0531 9.29003 49.7823 5.74114 49.4834 4.41497C49.332 3.78527 48.8358 3.29636 48.204 3.15419C46.8778 2.84599 43.3289 2.5845 39.1543 6.74043L35.2318 10.6816L33.8216 10.2987C34.4087 9.34015 34.2702 8.10543 33.4854 7.30078L32.4114 6.22678C31.9362 5.76533 31.297 5.51191 30.6347 5.52242C29.9724 5.53293 29.3415 5.80652 28.8812 6.28281L26.7799 8.37479L20.9896 6.79647C18.8228 6.20671 16.5061 6.8233 14.9191 8.41214L14.6203 8.711C14.2435 9.09695 14.0722 9.63885 14.1588 10.1713C14.2454 10.7037 14.5795 11.1634 15.0592 11.41L21.3258 14.548C21.0696 15.0852 20.8844 15.6534 20.7748 16.2384C20.6352 17.0055 20.8909 17.7914 21.4553 18.3295C22.0197 18.8675 22.8169 19.0855 23.5765 18.9094C24.7736 18.6361 25.89 18.0859 26.8359 17.303L28.0407 17.9474C25.3697 20.7492 24.1462 22.617 21.139 26.8383L17.861 25.9885C17.2857 25.8483 16.6787 26.0141 16.2546 26.4274L15.4795 27.2026C14.8181 27.8659 14.8181 28.9394 15.4795 29.6027L23.0069 37.1301C23.6702 37.7915 24.7437 37.7915 25.407 37.1301L26.1728 36.355C26.5978 35.9415 26.7719 35.3338 26.6305 34.758L25.818 31.4893C28.9432 29.4178 31.9033 27.1072 34.6715 24.5783L35.2692 25.7737C34.9481 26.1572 34.6636 26.5699 34.4193 27.0064C27.5029 32.0852 25.2116 41.3853 28.9771 49.0958C32.7425 56.8062 41.4858 60.7176 49.7437 58.3858C58.0016 56.054 63.4078 48.1473 62.5842 39.6061C61.7607 31.0649 54.9434 24.3367 46.3922 23.6257H46.4295ZM50.8376 26.5675C48.783 28.5568 46.9058 28.8089 45.3649 29.967L44.2442 25.8391L44.6457 25.4281C46.7657 25.3831 48.8726 25.7708 50.8376 26.5675ZM43.0768 20.5157C43.3079 20.2587 43.7023 20.2337 43.964 20.4597C45.6544 22.1501 45.6824 21.7205 43.6464 23.7564L42.862 20.7492L43.0768 20.5157ZM30.198 7.60897C30.4265 7.34908 30.8211 7.32 31.0852 7.5436L32.1593 8.60827C32.2828 8.73617 32.3471 8.91002 32.3364 9.08754C32.3258 9.26505 32.2412 9.42997 32.1032 9.54218L31.8697 9.75699L28.8812 8.94448L30.198 7.60897ZM23.2684 17.0789C23.0836 17.1409 22.88 17.1058 22.7267 16.9855C22.603 16.8337 22.5676 16.6283 22.6333 16.4438C22.7213 16.0802 22.8465 15.7266 23.0069 15.3885L24.9587 16.3691C24.4341 16.6892 23.8642 16.9284 23.2684 17.0789ZM34.3166 22.3649C31.1413 25.5309 28.7971 27.0345 24.6319 30.0323C24.0622 30.4316 23.8014 31.1433 23.9781 31.8161L24.8 35.1035L24.221 35.6919L16.9271 28.398L17.5061 27.819L20.7935 28.6408C21.4661 28.8148 22.1763 28.5545 22.5773 27.9871L25.4444 23.9712C29.2921 18.5918 30.6837 18.5452 30.5062 17.4898C30.4569 17.195 30.2694 16.9415 30.0019 16.8081L16.1145 9.85972C17.2257 8.65644 18.9154 8.17366 20.4946 8.60827L35.0077 12.5681C35.4918 12.6976 36.0081 12.5587 36.3619 12.2039L40.4805 8.09461C43.8612 4.70449 46.5509 4.74185 47.6623 4.96599C47.8864 6.06801 47.9238 8.76703 44.5337 12.1478L40.4244 16.2664C40.0696 16.6202 39.9307 17.1365 40.0602 17.6206L44.0107 32.1243C44.4342 33.7052 43.9491 35.3907 42.7499 36.5044L35.8109 22.617C35.6783 22.3476 35.4243 22.1584 35.1283 22.1084C34.8322 22.0585 34.5302 22.1539 34.3166 22.3649ZM37.2304 29.6121C36.8595 29.7917 36.4672 29.9235 36.063 30.0043C35.9101 30.0475 35.7458 30.0046 35.6334 29.8923C35.5211 29.7799 35.4782 29.6156 35.5214 29.4627C35.665 28.8264 35.911 28.2176 36.2498 27.6602L37.2304 29.6121ZM37.0063 42.2293C36.8102 44.5361 34.989 46.5907 35.3066 49.4578C35.5494 51.5965 35.9603 51.858 35.4373 54.0434C30.2774 50.2151 27.957 43.6383 29.5723 37.4196C30.1969 38.5617 31.1821 39.4647 32.3741 39.9879C34.4567 40.7911 37.1464 40.4829 37.0063 42.2293ZM42.6098 57.0413C43.6016 56.3438 44.7079 55.8254 45.8785 55.5096C47.9682 55.0616 50.125 55.0236 52.2291 55.3976C49.275 56.9317 45.9107 57.4908 42.6191 56.9946L42.6098 57.0413ZM54.4332 54.062C51.5004 53.2 48.3977 53.0907 45.4116 53.7445C43.5134 54.2392 41.7555 55.1661 40.275 56.4529C39.171 56.1127 38.109 55.6491 37.109 55.0707C37.6429 53.5191 37.7239 51.8476 37.3425 50.2517C37.0623 48.6267 36.9783 48.1504 37.9589 45.6475C38.4315 44.5975 38.7462 43.4834 38.8928 42.3414C39.0325 41.0181 38.2666 39.7659 37.025 39.2875C35.6334 38.6804 34.2792 38.6804 33.1399 38.2135C31.7623 37.5192 30.7956 36.2129 30.5342 34.6926C31.1984 33.2405 32.0767 31.8962 33.1399 30.7048C33.3267 30.4993 33.5415 30.3125 33.7376 30.1071C33.8259 30.5245 34.0336 30.9073 34.3353 31.2091C35.3813 32.2644 36.7635 31.9002 38.071 31.2931L41.2089 37.5597C41.4542 38.0463 41.9178 38.3858 42.4558 38.4727C42.9937 38.5596 43.5407 38.3833 43.9266 37.9987C44.2082 37.7251 44.4732 37.4351 44.7204 37.1301C45.5515 37.7571 46.5066 38.1996 47.5222 38.4283C49.1659 38.7832 51.1178 39.6797 51.1271 41.8557C51.1271 44.2653 49.362 46.3759 49.3153 48.7107C49.2686 51.0455 51.1832 52.3156 53.3592 52.0261C55.5352 51.7366 56.852 50.3731 58.4957 49.5419C57.4445 51.2795 56.0684 52.7983 54.4425 54.0154L54.4332 54.062ZM59.7098 47.1137C58.3316 47.5236 57.0289 48.1544 55.8528 48.9815L55.7407 49.0563C54.9685 49.6308 54.0732 50.0176 53.1257 50.1863C52.061 50.3264 51.1645 49.8501 51.1925 48.7574C51.1925 46.8896 53.0043 44.6949 53.0043 41.8651C53.0043 39.2314 51.1365 37.3169 47.9331 36.6071C47.0767 36.436 46.2827 36.0358 45.6357 35.4491C46.0469 34.3315 46.1311 33.1199 45.8785 31.9562C47.4195 30.3405 49.9691 30.2658 52.6027 27.38C59.6082 31.2018 62.6617 39.6492 59.7192 47.067L59.7098 47.1137Z" fill="#02275D"></path><path d="M19.0295 40.9793C19.3984 40.7553 19.3984 40.392 19.0295 40.168C18.6605 39.944 18.0623 39.944 17.6933 40.168C13.4307 42.7618 13.6565 48.3207 22.5487 51.9028C22.7002 51.9673 22.8812 52.0012 23.0662 52C23.4789 51.998 23.8413 51.8331 23.9601 51.5931C24.0789 51.3531 23.9263 51.0942 23.5838 50.9545C15.8113 47.8065 15.5385 43.0874 19.0295 40.9793Z" fill="#02275D"></path><path d="M19.8597 38.6833C20.3755 38.6833 20.7936 38.2651 20.7936 37.7493C20.7936 37.2336 20.3755 36.8154 19.8597 36.8154C19.3439 36.8154 18.9258 37.2336 18.9258 37.7493C18.9258 38.2651 19.3439 38.6833 19.8597 38.6833Z" fill="#02275D"></path></svg>