<svg width="70" height="70" viewBox="0 0 70 70" fill="none" style="max-width: 50%;"><path opacity="0.1" d="M62.1022 61.8046C60.7895 64.6691 58.1224 66.5844 55.3595 67.8476C53.1473 68.8522 50.8089 69.5121 48.4175 69.8064C47.9594 69.8638 47.4999 69.9084 47.0389 69.9401C45.861 70.0213 44.6792 70.0199 43.5015 69.936C42.793 69.8861 42.087 69.8065 41.3835 69.6971C38.9391 69.3201 36.5559 68.5863 34.3022 67.5168C33.6517 67.207 33.0144 66.8689 32.3903 66.5024C31.3479 65.8915 30.3492 65.2008 29.402 64.436C29.1924 64.2666 28.9855 64.0937 28.7812 63.917L28.6972 63.8444C28.5365 63.7043 28.3774 63.5611 28.2157 63.4221C27.9471 63.1841 27.6619 62.9679 27.3626 62.7751C27.3424 62.7626 27.3221 62.75 27.3013 62.738C27.246 62.704 27.1896 62.6721 27.1323 62.6418C27.0142 62.5789 26.8931 62.5224 26.7695 62.4725C26.1986 62.2426 25.5872 62.1589 24.9674 62.173C24.8646 62.173 24.7618 62.1804 24.6585 62.1877C24.5142 62.1981 24.3694 62.2138 24.225 62.2337L24.1716 62.2415C23.7117 62.3103 23.257 62.4135 22.8109 62.5504C22.1219 62.7594 21.4453 63.0207 20.7642 63.2564C20.475 63.3573 20.1854 63.4535 19.8933 63.5397L19.829 63.5585C19.4136 63.6821 18.9906 63.7756 18.5632 63.8386C17.5918 63.9699 16.6053 63.8859 15.6663 63.5919L15.6337 63.582L15.5734 63.5632L15.4908 63.536C15.3524 63.49 15.2152 63.4397 15.0791 63.385L14.9966 63.3515C14.8647 63.2979 14.7357 63.2402 14.6095 63.1786L14.527 63.1388C14.3952 63.074 14.2662 63.0056 14.14 62.9334C14.0945 62.9084 14.0495 62.8812 14.0051 62.8556C13.8706 62.7761 13.7388 62.6929 13.6096 62.6058C13.4726 62.5134 13.3384 62.4171 13.2073 62.3168C13.1467 62.2708 13.0867 62.2236 13.0274 62.1751C12.6855 61.8986 12.3653 61.5933 12.07 61.2621C12.0537 61.2449 12.0384 61.2271 12.023 61.2099C11.9444 61.12 11.8673 61.0285 11.7927 60.935C11.765 60.9005 11.7374 60.866 11.7102 60.8304C11.6215 60.7162 11.536 60.5993 11.4536 60.4798C11.4413 60.4625 11.4294 60.4448 11.4176 60.4275C11.0798 59.9337 10.7999 59.3985 10.5837 58.8335C10.5768 58.8163 10.5704 58.7985 10.5645 58.7813C10.4986 58.6018 10.4384 58.4195 10.384 58.2341C10.3618 58.1567 10.3406 58.0773 10.3218 58C10.3153 57.977 10.3094 57.9535 10.304 57.9305C10.0311 56.7948 10 55.6142 10 54.4404C10 54.3035 10 54.1668 10 54.0302C10.0079 52.1315 10.0356 50.2005 10.3005 48.3279C10.3005 48.3149 10.304 48.3018 10.306 48.2893C10.3946 47.6589 10.5152 47.034 10.6673 46.4173C10.8264 45.7701 11.0297 45.1361 11.2757 44.5202C11.8851 43.0046 12.7714 41.6254 13.7554 40.3471C14.9417 38.809 16.3009 37.3896 17.8149 36.2184C18.0323 36.0501 18.2528 35.8867 18.4762 35.7282L18.5795 35.6566C18.6156 35.631 18.6517 35.6044 18.6877 35.5819C18.7619 35.5296 18.836 35.4805 18.9112 35.4308L18.9952 35.3754L19.1553 35.2709L19.2048 35.2411L19.2903 35.1889L19.3748 35.1366C19.4736 35.0749 19.5736 35.0147 19.6748 34.9558C20.1068 34.7011 20.549 34.4684 21.0014 34.2576C21.1349 34.1952 21.2691 34.1351 21.4042 34.0773C22.0176 33.8131 22.6477 33.5947 23.2899 33.4235C23.5271 33.3601 23.7659 33.3043 24.0061 33.2562C24.2894 33.1984 24.5743 33.1505 24.8607 33.1125C25.3163 33.0519 25.7746 33.0158 26.2337 33.0043C29.4623 32.9212 32.7235 34.0323 35.2536 36.162C36.2619 37.0107 37.1679 38.0157 38.3003 38.6664C39.2888 39.2329 40.4459 39.4675 41.5046 39.0217C42.3795 38.6533 42.9489 38.4704 43.9315 38.5263C45.9647 38.6474 47.9693 39.0906 49.878 39.8412C49.9551 39.871 50.0322 39.9018 50.1088 39.9326C55.0866 41.9473 59.3665 45.9479 61.5897 51.0889C61.6483 51.2248 61.7055 51.3617 61.7612 51.4997C63.0873 54.7739 63.5658 58.6125 62.1022 61.8046Z" fill="#02275D"></path><path d="M54.2685 52.8323V57.6759C54.2685 58.2182 53.8293 58.6574 53.287 58.6574H17.4629C16.9207 58.6574 16.4814 58.2182 16.4814 57.6759V52.8323C16.4814 47.7727 20.6208 43.7597 25.6804 43.7106C27.3534 43.6928 28.8695 42.8693 29.7989 41.5428C34.0637 46.2821 33.0826 45.1917 34.645 46.9287C35.0351 47.3617 35.7148 47.3617 36.1049 46.9287C37.5059 45.3711 36.3622 46.6421 40.951 41.5428C41.8779 42.8657 43.3918 43.6928 45.0695 43.7106C50.1291 43.7597 54.2685 47.7727 54.2685 52.8323Z" fill="#02275D" fill-opacity="0.3"></path><path d="M43.1137 43.3009C43.0985 43.3333 41.8876 48.8418 41.8954 48.8067C41.7356 49.5314 40.8184 49.7648 40.3317 49.2045C37.1104 45.495 37.5499 45.9787 37.2236 45.6845L40.9508 41.5427C41.4906 42.3132 42.239 42.9254 43.1137 43.3009Z" fill="#E8F3FF"></path><path d="M29.7987 41.5428L33.4375 45.5865L30.4191 49.1634C29.9367 49.7351 29.0082 49.5059 28.8473 48.7753C28.8395 48.7404 27.6511 43.3331 27.6357 43.3007C28.5105 42.9254 29.2589 42.3132 29.7987 41.5428Z" fill="#E8F3FF"></path><path d="M40.1765 39.8156C37.1539 41.0808 33.8322 41.179 30.5752 39.8156C30.7416 39.1253 30.7138 38.6783 30.7138 37.8011L30.7322 37.7557C33.6867 38.982 37.0592 38.9845 40.0195 37.7557L40.0379 37.8011C40.0379 38.6786 40.0103 39.1256 40.1765 39.8156Z" fill="#02275D" fill-opacity="0.5"></path><path d="M28.2739 46.1743C23.4181 46.3951 19.5486 50.4032 19.5486 55.3131V58.6575H17.4629C16.9209 58.6575 16.4814 58.218 16.4814 57.676V52.84C16.4814 47.7787 20.6224 43.7626 25.6836 43.7105C26.3756 43.7034 27.0356 43.5581 27.636 43.301C27.6513 43.3334 28.2663 46.1393 28.2739 46.1743Z" fill="#E8F3FF"></path><path d="M42.4756 46.1743C47.3315 46.3951 51.201 50.4032 51.201 55.3131V58.6575H53.2866C53.8286 58.6575 54.2681 58.218 54.2681 57.676V52.84C54.2681 47.7787 50.1271 43.7626 45.066 43.7105C44.3739 43.7034 43.714 43.5581 43.1135 43.301C43.0983 43.3334 42.4833 46.1393 42.4756 46.1743Z" fill="#02275D" fill-opacity="0.5"></path><path d="M29.876 46.6956C30.0588 47.5261 30.2538 48.4107 30.4195 49.1628C29.9371 49.7346 29.0086 49.5062 28.8476 48.7754C28.3759 46.6331 27.646 43.3227 27.6357 43.3009C28.5105 42.9254 29.2589 42.3132 29.7987 41.5428L30.8464 42.7083C29.9459 43.8296 29.5644 45.2835 29.876 46.6956Z" fill="#E8F3FF"></path><path d="M37.2238 45.6847L39.0554 58.6574H31.6943L33.4377 45.5865L34.6454 46.9281C35.0353 47.3612 35.7144 47.3612 36.1043 46.9281L37.2238 45.6847Z" fill="#02275D"></path><path d="M34.7198 47.0109L33.1666 58.6574H31.6943L33.4377 45.5865L34.7198 47.0109Z" fill="#71A1F7"></path><path d="M45.1195 42.7294C43.674 42.7294 42.3625 41.9933 41.6115 40.7602C41.3294 40.2972 40.7254 40.1505 40.2627 40.4325C39.7999 40.7145 39.653 41.3184 39.9351 41.7813C40.4575 42.6389 41.1646 43.3313 41.9879 43.8269L40.9707 48.4431L38.5183 45.6193C38.9635 45.1074 38.8561 44.5095 38.4726 44.176C38.0638 43.8205 37.4437 43.8635 37.0879 44.2726L35.3622 46.2571L31.0153 41.4271C31.3852 40.7168 31.6094 39.937 31.6735 39.1243C40.0865 41.6009 48.5023 35.2513 48.5023 26.5292V18.4167C48.5023 17.8746 48.0629 17.4352 47.5208 17.4352C46.9788 17.4352 46.5394 17.8746 46.5394 18.4167V26.5292C46.5394 32.6852 41.5311 37.6936 35.375 37.6936C29.2189 37.6936 24.2106 32.6853 24.2106 26.5292V18.1998C26.6034 18.0639 28.6386 16.5617 29.3639 13.839C33.4506 16.4562 38.0314 18.1518 42.8387 18.8247C43.3775 18.8998 43.8719 18.524 43.9468 17.9887C44.0219 17.452 43.6477 16.9559 43.1109 16.8806C38.2158 16.1955 33.4389 14.3634 29.1944 11.3586C28.5455 10.899 27.6419 11.3666 27.6458 12.166C27.646 12.1904 27.6368 14.6246 25.7903 15.7354C24.6227 16.4379 23.4418 16.211 23.2386 16.2088C22.737 16.204 22.3119 16.5804 22.2547 17.0769C22.2439 17.1719 22.2477 16.8486 22.2477 24.9308C21.5921 24.5907 21.1435 23.9139 21.1435 23.1351V11.1782C21.1435 9.89287 22.1892 8.84722 23.4745 8.84722C23.8758 8.84722 24.2368 8.60283 24.3858 8.23024C25.7265 4.8786 28.9252 2.71296 32.5351 2.71296H40.9521C45.792 2.71296 49.7292 6.6503 49.7292 11.49V23.1351C49.7292 23.6772 50.1686 24.1166 50.7106 24.1166C51.2527 24.1166 51.6921 23.6772 51.6921 23.1351V11.49C51.6921 5.56797 46.8743 0.75 40.9521 0.75H32.5351C28.3245 0.75 24.5707 3.15831 22.808 6.93591C20.7557 7.25722 19.1806 9.03726 19.1806 11.1782V23.1351C19.1806 25.0128 20.4943 26.5909 22.2576 27.0146C22.4408 32.0274 25.4474 36.3317 29.7315 38.38V38.6389C29.7315 39.7324 29.305 40.7597 28.5308 41.5319C27.1575 42.9012 25.4271 42.7294 25.6302 42.7294C20.0314 42.7294 15.5 47.2602 15.5 52.8597V58.6574C15.5 59.1994 15.9395 59.6389 16.4815 59.6389C17.0235 59.6389 17.463 59.1994 17.463 58.6574V52.8597C17.463 48.3455 21.1159 44.6923 25.6305 44.6924C26.06 44.6924 26.4888 44.6468 26.9128 44.5561L28.2823 50.7713C28.4557 51.5584 29.4541 51.8112 29.9819 51.2037L31.9155 48.9772L30.7207 58.5357C30.6535 59.0736 31.0351 59.5641 31.5729 59.6313C32.1117 59.6984 32.6013 59.3162 32.6686 58.7791L34.0494 47.7324C34.1118 47.8017 34.6574 48.4136 34.7273 48.4753C35.1325 48.8308 35.7496 48.7948 36.1098 48.3885C36.3039 48.1664 35.8018 48.7433 36.6984 47.7123L38.0817 58.779C38.1488 59.3161 38.6383 59.6984 39.1774 59.6312C39.7152 59.5639 40.0968 59.0734 40.0296 58.5356L38.8347 48.9771L40.7684 51.2036C41.2969 51.8122 42.2948 51.5569 42.4679 50.7712L43.8375 44.5557C44.2532 44.6441 44.6819 44.6922 45.1196 44.6922C49.6337 44.6923 53.287 48.3451 53.287 52.8597V58.6574C53.287 59.1994 53.7265 59.6389 54.2685 59.6389C54.8105 59.6389 55.25 59.1994 55.25 58.6574V52.8597C55.25 47.2607 50.7191 42.7292 45.1195 42.7294ZM29.7793 48.4431L28.7619 43.8255C29.1361 43.5995 29.4871 43.3305 29.8106 43.0228L32.1902 45.6669L29.7793 48.4431Z" fill="#02275D"></path></svg>